<?xml version="1.0" encoding="utf-8"?>
<!-- Designed by Vexels.com - 2016 All Rights Reserved - https://vexels.com/terms-and-conditions/  -->

<svg version="1.0" id="Capa_1" xmlns="http://www.w3.org/2000/svg" xmlns:xlink="http://www.w3.org/1999/xlink" x="0px" y="0px"
	 width="1200px" height="1200px" viewBox="0 0 1200 1200" enable-background="new 0 0 1200 1200" xml:space="preserve">
<g>
	<g>
		<g>
			<g>
				<path d="M729.207,621.733H473.49l-3.997-5.206c-22.519-29.343-34.419-64.281-34.419-101.047
					c0-91.688,74.589-166.277,166.271-166.277c91.687,0,166.283,74.589,166.283,166.277c0,36.765-11.906,71.71-34.432,101.047
					L729.207,621.733z M486.8,595.113h229.097c16.455-23.526,25.112-50.919,25.112-79.632c0-77.007-62.651-139.657-139.663-139.657
					c-77.007,0-139.651,62.65-139.651,139.657C461.695,544.187,470.352,571.587,486.8,595.113z"/>
			</g>
		</g>
		<g>
			<g>
				<g>
					<path d="M600.965,1100h-1.892c-19.904,0-36.094-16.19-36.094-36.094v-51.236H325.192c-21.079,0-39.161-8.5-50.913-23.932
						c-11.948-15.727-15.426-36.892-9.559-58.087l63.416-229.004c10.698-38.634,49.645-68.901,88.661-68.901h366.402
						c39.016,0,77.963,30.268,88.678,68.901l63.405,229.01c5.873,21.229,2.389,42.401-9.559,58.081
						c-11.757,15.432-29.845,23.932-50.929,23.932H637.059v51.236C637.059,1083.81,620.869,1100,600.965,1100z M416.798,656.446
						c-28.427,0-57.954,23.116-65.817,51.531l-63.416,229.004c-3.883,14.002-1.846,27.634,5.578,37.407
						c7.157,9.396,18.539,14.581,32.049,14.581h261.487v74.936c0,6.833,5.56,12.394,12.394,12.394h1.892
						c6.833,0,12.394-5.561,12.394-12.394v-74.936h261.435c13.516,0,24.909-5.185,32.078-14.593
						c7.417-9.738,9.449-23.37,5.566-37.402l-63.404-229.003c-7.875-28.41-37.408-51.526-65.835-51.526H416.798z M808.004,950.729
						h-414.38c-11.254,0-20.732-4.432-26.692-12.486c-6.156-8.344-7.776-19.493-4.588-31.401v-0.012l35.608-122.285l7.423-26.252
						c6.741-23.844,31.968-43.245,56.23-43.245h280.136c24.279,0,49.506,19.407,56.235,43.257l41.302,148.507
						c3.229,11.925,1.603,23.087-4.577,31.436C828.8,946.285,819.31,950.729,808.004,950.729z M710.334,927.029h97.67
						c2.066,0,5.804-0.37,7.621-2.847c1.782-2.401,2.054-6.463,0.775-11.179l-0.006-0.017l-15.415-57.364h-99.886L710.334,927.029z
						 M520.913,927.029h159.605l-9.229-71.407h-141.13L520.913,927.029z M385.234,912.974c-1.267,4.733-0.99,8.812,0.764,11.191
						c1.84,2.488,5.566,2.864,7.626,2.864h97.688l9.229-71.407h-99.886L385.234,912.974z M696.043,831.922h97.225l-13.129-47.377
						h-90.432L696.043,831.922z M534.233,831.922h134.221l-6.312-47.377H540.569L534.233,831.922z M409.437,831.922h97.202
						l6.324-47.377h-90.42L409.437,831.922z M687.884,760.845h85.849c-5.462-11.989-19.655-22.097-31.991-22.097h-56.861
						L687.884,760.845z M545.394,760.845h112.344l-3.003-22.097H548.398L545.394,760.845z M429.62,760.845h85.855l3.003-22.097
						h-56.872C449.275,738.748,435.082,748.862,429.62,760.845z"/>
				</g>
			</g>
		</g>
		<g>
			<g>
				<g>
					<path d="M600.964,1100h-1.892c-19.904,0-36.094-16.19-36.094-36.094v-51.236H325.191c-21.079,0-39.161-8.5-50.912-23.932
						c-11.948-15.727-15.426-36.892-9.559-58.087l63.416-229.004c10.699-38.634,49.645-68.901,88.661-68.901h366.402
						c39.016,0,77.963,30.268,88.679,68.901l63.404,229.01c5.873,21.229,2.389,42.401-9.559,58.081
						c-11.757,15.432-29.845,23.932-50.93,23.932H637.058v51.236C637.058,1083.81,620.868,1100,600.964,1100z M416.797,656.446
						c-28.427,0-57.954,23.116-65.817,51.531l-63.416,229.004c-3.883,14.002-1.846,27.634,5.578,37.407
						c7.157,9.396,18.539,14.581,32.049,14.581h261.487v74.936c0,6.833,5.56,12.394,12.394,12.394h1.892
						c6.833,0,12.394-5.561,12.394-12.394v-74.936h261.435c13.516,0,24.909-5.185,32.078-14.593
						c7.417-9.738,9.449-23.37,5.566-37.402l-63.404-229.003c-7.875-28.41-37.407-51.526-65.835-51.526H416.797z M808.004,950.729
						H393.623c-11.254,0-20.731-4.432-26.691-12.486c-6.157-8.344-7.777-19.493-4.589-31.401v-0.012l35.608-122.285l7.424-26.252
						c6.741-23.844,31.969-43.245,56.23-43.245h280.136c24.279,0,49.507,19.407,56.236,43.257l41.301,148.507
						c3.229,11.925,1.603,23.087-4.577,31.436C828.799,946.285,819.31,950.729,808.004,950.729z M710.334,927.029h97.67
						c2.065,0,5.803-0.37,7.62-2.847c1.782-2.401,2.054-6.463,0.775-11.179l-0.006-0.017l-15.414-57.364h-99.886L710.334,927.029z
						 M520.913,927.029h159.605l-9.229-71.407H530.159L520.913,927.029z M385.234,912.974c-1.267,4.733-0.989,8.812,0.764,11.191
						c1.84,2.488,5.566,2.864,7.626,2.864h97.688l9.229-71.407h-99.886L385.234,912.974z M696.042,831.922h97.224l-13.129-47.377
						h-90.431L696.042,831.922z M534.233,831.922h134.221l-6.313-47.377H540.568L534.233,831.922z M409.437,831.922h97.201
						l6.324-47.377h-90.42L409.437,831.922z M687.883,760.845h85.849c-5.462-11.989-19.655-22.097-31.991-22.097h-56.86
						L687.883,760.845z M545.394,760.845h112.343l-3.003-22.097H548.397L545.394,760.845z M429.619,760.845h85.855l3.003-22.097
						h-56.872C449.275,738.748,435.082,748.862,429.619,760.845z"/>
				</g>
			</g>
		</g>
	</g>
	<g>
		<g>
			<path d="M600.006,347.313c-17.326,0-31.429-14.096-31.429-31.429V131.429c0-17.333,14.103-31.429,31.429-31.429
				c17.326,0,31.429,14.096,31.429,31.429v184.454C631.435,333.216,617.333,347.313,600.006,347.313z M600.006,126.62
				c-2.613,0-4.809,2.203-4.809,4.809v184.454c0,2.607,2.197,4.809,4.809,4.809c2.613,0,4.809-2.203,4.809-4.809V131.429
				C604.816,128.823,602.619,126.62,600.006,126.62z"/>
		</g>
	</g>
	<g>
		<g>
			<g>
				<path d="M994.483,516.897H810.041c-17.326,0-31.429-14.096-31.429-31.429c0-17.332,14.103-31.429,31.429-31.429h184.442
					c17.326,0,31.43,14.097,31.43,31.429C1025.912,502.801,1011.809,516.897,994.483,516.897z M810.041,480.659
					c-2.613,0-4.809,2.203-4.809,4.809c0,2.607,2.196,4.809,4.809,4.809h184.442c2.612,0,4.809-2.203,4.809-4.809
					c0-2.606-2.197-4.809-4.809-4.809H810.041z"/>
			</g>
		</g>
		<g>
			<g>
				<path d="M389.972,516.897H205.517c-17.333,0-31.43-14.096-31.43-31.429c0-17.332,14.097-31.429,31.43-31.429h184.454
					c17.326,0,31.422,14.097,31.422,31.429C421.394,502.801,407.298,516.897,389.972,516.897z M205.517,480.659
					c-2.607,0-4.809,2.203-4.809,4.809c0,2.607,2.203,4.809,4.809,4.809h184.454c2.606,0,4.803-2.203,4.803-4.809
					c0-2.606-2.197-4.809-4.803-4.809H205.517z"/>
			</g>
		</g>
	</g>
	<g>
		<g>
			<g>
				<path d="M748.521,368.363c-8.058,0-16.104-3.061-22.226-9.189c-12.257-12.251-12.257-32.19,0-44.44L856.73,184.305
					c11.841-11.854,32.625-11.835,44.44,0.007c12.257,12.244,12.257,32.183,0,44.433L770.735,359.174
					C764.613,365.302,756.568,368.363,748.521,368.363z M878.943,201.735c-0.741,0-2.183,0.182-3.392,1.384L745.116,333.554
					c-1.846,1.846-1.846,4.952,0,6.798c1.82,1.833,4.939,1.846,6.798,0l130.435-130.428c1.846-1.846,1.846-4.952,0-6.798
					C881.14,201.917,879.697,201.735,878.943,201.735z"/>
			</g>
		</g>
	</g>
	<g>
		<g>
			<g>
				<path d="M451.485,368.363c-8.052,0-16.098-3.061-22.22-9.189L298.836,228.745c-12.251-12.25-12.251-32.183-0.007-44.433l0,0
					c11.841-11.854,32.612-11.861,44.453-0.007l130.429,130.428c12.25,12.251,12.25,32.19,0,44.44
					C467.583,365.302,459.531,368.363,451.485,368.363z M321.056,201.735c-0.747,0-2.19,0.182-3.393,1.384l-0.006,0.006
					c-1.839,1.846-1.839,4.952,0,6.798l130.428,130.428c1.846,1.833,4.952,1.839,6.811-0.006c1.833-1.839,1.833-4.946-0.007-6.792
					L324.462,203.126C323.253,201.917,321.81,201.735,321.056,201.735z"/>
			</g>
		</g>
	</g>
</g>
</svg>
